<svg width="37" height="37" viewBox="0 0 37 37" fill="none" xmlns="http://www.w3.org/2000/svg">
<mask id="mask0_40_80" style="mask-type:luminance" maskUnits="userSpaceOnUse" x="0" y="0" width="37" height="37">
<path d="M36.4342 0.398453H0.12561V36.7071H36.4342V0.398453Z" fill="white"/>
</mask>
<g mask="url(#mask0_40_80)">
<path d="M30.7002 12.8187C30.7002 5.9592 25.1394 0.398453 18.2799 0.398453C11.4204 0.398453 5.85966 5.9592 5.85966 12.8187C4.08632 13.0396 2.40958 14.1987 2.40958 16.8898V23.376C2.40958 26.412 4.53483 27.5161 6.54968 27.5161H8.55072C8.93179 27.5161 9.24071 27.2071 9.24071 26.826V13.4674C9.24071 13.0863 8.93179 12.7773 8.55072 12.7773H7.23969C7.23969 6.68001 12.1826 1.73708 18.2799 1.73708C24.3772 1.73708 29.3202 6.68001 29.3202 12.7773H28.0092C27.6281 12.7773 27.3191 13.0863 27.3191 13.4674V26.8054C27.3191 27.1864 27.6281 27.4954 28.0092 27.4954H29.3202C29.127 32.2358 26.8499 33.3467 22.3027 33.5468V33.0845C22.3027 32.3223 21.6849 31.7045 20.9227 31.7045H16.5825C15.8203 31.7045 15.2025 32.3223 15.2025 33.0845V35.3271C15.2025 36.0893 15.8203 36.7071 16.5825 36.7071H20.9365C21.6987 36.7071 22.3165 36.0893 22.3165 35.3271V34.9269C26.6913 34.7267 30.4725 33.8228 30.7002 27.454C32.4736 27.2332 34.1503 26.0739 34.1503 23.3829V16.8967C34.1503 14.1918 32.4805 13.0396 30.7002 12.8187ZM7.86071 14.109V26.1153H6.51517C5.49395 26.1153 3.75511 25.7565 3.75511 23.3553V16.8691C3.75511 14.4886 5.47325 14.109 6.51517 14.109H7.86071ZM20.9365 34.2851V35.334H16.5825V33.0914H20.9365V34.2851ZM32.7702 23.376C32.7702 25.7565 31.0521 26.136 30.0102 26.136H28.6992V14.1573H30.0447C31.0659 14.1573 32.8048 14.5162 32.8048 16.9174L32.7702 23.376Z" fill="white"/>
</g>
</svg>
