<svg width="37" height="37" viewBox="0 0 37 37" fill="none" xmlns="http://www.w3.org/2000/svg">
<mask id="mask0_40_44" style="mask-type:luminance" maskUnits="userSpaceOnUse" x="0" y="0" width="37" height="37">
<path d="M36.643 0.398453H0.334351V36.7071H36.643V0.398453Z" fill="white"/>
</mask>
<g mask="url(#mask0_40_44)">
<path d="M22.5952 15.1801L17.1399 20.3328L14.5217 17.6392C14.2315 17.3404 13.7535 17.3336 13.455 17.6238C13.1561 17.9144 13.1494 18.392 13.4396 18.6908L16.5797 21.9144C16.8715 22.2079 17.3429 22.2179 17.6467 21.9368L23.6472 16.2772C23.7929 16.1398 23.878 15.95 23.8836 15.7499C23.8893 15.5499 23.8151 15.3556 23.6773 15.2102C23.3853 14.9067 22.9039 14.8933 22.5952 15.1801Z" fill="white"/>
<path d="M18.5472 7.25015C12.3124 7.25015 7.24271 12.3199 7.24271 18.5546C7.24271 24.7898 12.3124 29.8594 18.5472 29.8594C24.7823 29.8594 29.852 24.7898 29.852 18.5546C29.852 12.3199 24.7823 7.25015 18.5472 7.25015ZM18.5472 28.346C13.1447 28.346 8.75604 23.9497 8.75604 18.5546C8.75604 13.1596 13.1447 8.76349 18.5472 8.76349C23.955 8.76349 28.3386 13.1471 28.3386 18.5546C28.3386 23.9621 23.955 28.346 18.5472 28.346Z" fill="white"/>
<path d="M34.1044 14.393L34.3541 9.90586C34.3715 9.60468 34.2078 9.32181 33.938 9.18702L29.9427 7.16678L27.9225 3.17153C27.785 2.90403 27.5039 2.74117 27.2036 2.75536L22.7088 2.99774L18.9633 0.523197C18.7109 0.35679 18.3837 0.35679 18.131 0.523197L14.3855 2.99774L9.89868 2.74797C9.59723 2.73024 9.31465 2.89398 9.17987 3.16414L7.15933 7.15939L3.16437 9.17963C2.89658 9.31678 2.73402 9.59787 2.74821 9.89851L2.99766 14.3855L0.523426 18.131C0.357019 18.3835 0.357019 18.7107 0.523426 18.9634L2.99028 22.7163L2.74052 27.2034C2.72308 27.5046 2.88653 27.7874 3.15669 27.9222L7.15194 29.9424L9.17218 33.9377C9.30933 34.2055 9.59042 34.3681 9.89106 34.3538L14.3781 34.1041L18.1236 36.5784C18.3746 36.7501 18.705 36.7501 18.956 36.5784L22.7015 34.1041L27.1886 34.3538C27.4898 34.3713 27.7723 34.2076 27.9074 33.9377L29.9276 29.9424L33.9228 27.9222C34.1903 27.7848 34.3533 27.5039 34.339 27.2034L34.0893 22.7163L36.5636 18.9708C36.7299 18.7183 36.7299 18.3908 36.5636 18.1385L34.1044 14.393ZM32.6969 22.0958C32.6046 22.2313 32.5618 22.3941 32.576 22.5575L32.8103 26.8023L29.0347 28.709C28.8907 28.7812 28.774 28.8982 28.7018 29.0421L26.7948 32.8178L22.5501 32.5834C22.3876 32.5775 22.2271 32.6194 22.0884 32.7042L18.5471 35.0425L15.0062 32.7042C14.8832 32.6212 14.7384 32.5762 14.59 32.5757H14.5522L10.3072 32.8103L8.40044 29.0344C8.32832 28.8905 8.21157 28.7737 8.06734 28.7017L4.284 26.8023L4.51869 22.5575C4.5246 22.395 4.48233 22.2345 4.3975 22.0958L2.05952 18.5546L4.3975 15.0134C4.49001 14.8782 4.53287 14.7151 4.51869 14.552L4.284 10.307L8.05995 8.40021C8.20389 8.32809 8.32064 8.21134 8.39276 8.06739L10.2995 4.29145L14.5446 4.52614C14.7068 4.53176 14.8672 4.48978 15.0062 4.40495L18.5471 2.06697L22.0884 4.40495C22.2238 4.49746 22.3869 4.54033 22.5501 4.52614L26.7948 4.29145L28.7018 8.06739C28.774 8.21134 28.8907 8.32809 29.0347 8.40021L32.8103 10.307L32.576 14.552C32.5701 14.7142 32.6123 14.8747 32.6969 15.0134L35.0351 18.5546L32.6969 22.0958Z" fill="white"/>
</g>
</svg>
