<svg width="37" height="37" viewBox="0 0 37 37" fill="none" xmlns="http://www.w3.org/2000/svg">
<g clip-path="url(#clip0_40_57)">
<mask id="mask0_40_57" style="mask-type:luminance" maskUnits="userSpaceOnUse" x="0" y="0" width="37" height="37">
<path d="M36.4629 0.398453H0.154312V36.7071H36.4629V0.398453Z" fill="white"/>
</mask>
<g mask="url(#mask0_40_57)">
<path d="M26.6877 15.7599H9.92977V17.1563H26.6877V15.7599Z" fill="white"/>
<path d="M26.6877 19.9494H9.92977V21.3458H26.6877V19.9494Z" fill="white"/>
<path d="M26.6877 24.1388H9.92977V25.5353H26.6877V24.1388Z" fill="white"/>
<path d="M18.3087 28.3283H9.92977V29.7248H18.3087V28.3283Z" fill="white"/>
<path d="M18.3296 5.63529C18.9081 5.63529 19.377 5.16638 19.377 4.58793C19.377 4.00948 18.9081 3.54056 18.3296 3.54056C17.7512 3.54056 17.2823 4.00948 17.2823 4.58793C17.2823 5.16638 17.7512 5.63529 18.3296 5.63529Z" fill="white"/>
<path d="M32.2735 8.77732C32.2735 7.2348 31.0231 5.98433 29.4806 5.98433H25.6032C25.086 5.40977 24.4216 4.97014 23.6582 4.75053C23.0153 4.56568 22.5204 4.07079 22.3354 3.42779C21.8323 1.67834 20.2199 0.398453 18.3085 0.398453C16.3973 0.398453 14.7851 1.67825 14.282 3.42762C14.0967 4.07141 13.6007 4.56568 12.9569 4.75123C12.1943 4.97101 11.5306 5.4102 11.0139 5.98433H7.13673C5.59413 5.98433 4.34375 7.2348 4.34375 8.77732V33.9141C4.34375 35.4566 5.59413 36.7071 7.13673 36.7071C13.5489 36.7071 21.4296 36.7071 29.4806 36.7071C31.0232 36.7071 32.2736 35.4566 32.2736 33.9141C32.2736 25.9821 32.2735 18.3867 32.2735 8.77732ZM11.3263 8.7548C11.3359 7.52711 12.1654 6.43261 13.3436 6.09309C14.4529 5.77346 15.3055 4.92125 15.624 3.81366C15.9659 2.62499 17.0698 1.79495 18.3085 1.79495C19.5475 1.79495 20.6514 2.62499 20.9932 3.81375C21.3119 4.92204 22.1639 5.77399 23.2721 6.09265C24.4608 6.43453 25.291 7.53854 25.291 8.77723V10.1737H11.3263V8.7548ZM29.4806 35.3106C22.022 35.3106 14.5756 35.3106 7.13673 35.3106C6.36665 35.3106 5.74024 34.6841 5.74024 33.9141V8.77732C5.74024 8.00732 6.36665 7.38083 7.13673 7.38083H10.1691C10.018 7.80781 9.93359 8.26611 9.92987 8.74389V11.5703H26.6877V8.77732C26.6877 8.28724 26.6011 7.81802 26.4464 7.38083H29.4806C30.2506 7.38083 30.877 8.00732 30.877 8.77732C30.877 12.7698 30.8769 31.4925 30.8772 33.9141C30.8771 34.6841 30.2507 35.3106 29.4806 35.3106Z" fill="white"/>
</g>
</g>
<defs>
<clipPath id="clip0_40_57">
<rect width="36.3086" height="36.3086" fill="white" transform="translate(0.154312 0.398453)"/>
</clipPath>
</defs>
</svg>
